<svg xmlns="http://www.w3.org/2000/svg" width="20" height="20" viewBox="0 0 20 20">
    <defs>
        <style>
            .prefix__cls-2{fill:#333}
        </style>
    </defs>
    <g id="prefix__그룹_14" data-name="그룹 14" transform="translate(-1393 -760)">
        <path id="prefix__사각형_47" d="M0 0H20V20H0z" data-name="사각형 47" transform="translate(1393 760)" style="fill:#f55;opacity:0"/>
        <g id="prefix__그룹_5" data-name="그룹 5" transform="translate(1394.111 761.111)">
            <g id="prefix___00C73C_네이버톡톡" data-name="#00C73C_네이버톡톡">
                <path id="prefix__패스_1" d="M-.007 8.779V2.141A2.105 2.105 0 0 1 2.038.1H13.8a2.015 2.015 0 0 1 1.268.427c.636.491 1.272.982 1.9 1.486a2.135 2.135 0 0 1 .8 1.759v8.875a2.133 2.133 0 0 1-1.827 2.186 2.489 2.489 0 0 1-.465.026H8.1a4.386 4.386 0 0 0-2.382.623 7.563 7.563 0 0 0-1.131.9c-.354.329-.7.751-1.05 1.123A.979.979 0 0 1 2.1 17.6L.351 16.233a.905.905 0 0 1-.363-.756Q0 12.126-.007 8.779zm.764.021V15.267c0 .124.034.3.115.354.154.1.248-.077.342-.175.316-.329.623-.666.935-1a5.442 5.442 0 0 1 4.158-1.793h7.36a1.388 1.388 0 0 0 1.477-1.464v-8.86A1.39 1.39 0 0 0 13.692.86H2.208a1.691 1.691 0 0 0-.734.179 1.376 1.376 0 0 0-.721 1.37C.757 4.54.753 6.666.757 8.8z" class="prefix__cls-2" data-name="패스 1" transform="translate(.012 -.096)"/>
                <path id="prefix__패스_2" d="M88.057 106.567v-1.11a.969.969 0 0 1 .935-.969.935.935 0 0 1 .973.879c.026.807.021 1.618 0 2.429a.934.934 0 0 1-.969.832.984.984 0 0 1-.931-.909c-.012-.384-.008-.768-.008-1.152z" class="prefix__cls-2" data-name="패스 2" transform="translate(-84.296 -100.031)"/>
                <path id="prefix__패스_3" d="M240 106.559v-1.131a.952.952 0 0 1 1.9-.013c.009.768.009 1.533 0 2.3a.955.955 0 0 1-1.908-.009c.008-.378.008-.763.008-1.147z" class="prefix__cls-2" data-name="패스 3" transform="translate(-229.754 -100.04)"/>
            </g>
        </g>
    </g>
</svg>
